<svg preserveAspectRatio="none" width="100%" height="100%" overflow="visible" style="display: block;" viewBox="0 0 100.66 49.3026" fill="none" xmlns="http://www.w3.org/2000/svg">
<g id="Company logo" clip-path="url(#clip0_0_152)">
<path id="Vector" fill-rule="evenodd" clip-rule="evenodd" d="M81.8704 21.1562C82.2547 21.8194 82.3805 22.5739 82.422 23.4221L82.4766 24.5526V32.4583L82.5323 33.59C82.6438 35.4383 84.0069 36.805 85.8694 36.9212L86.9953 36.977V24.5526L87.051 23.4221C87.0973 22.5833 87.2219 21.8146 87.6122 21.1467C88.0099 20.4616 88.5808 19.8933 89.2676 19.4987C89.9545 19.104 90.733 18.8971 91.5252 18.8985C92.3173 18.8999 93.0951 19.1097 93.7805 19.5069C94.4659 19.904 95.0348 20.4744 95.43 21.1609C95.8144 21.8241 95.9342 22.5928 95.9805 23.4221L96.0362 24.5491V32.4583L96.092 33.59C96.2082 35.4478 97.5606 36.8144 99.4291 36.9212L100.555 36.977V23.4221C100.555 21.0252 99.603 18.7264 97.9085 17.0313C96.214 15.3361 93.9156 14.3833 91.5187 14.3823C90.2358 14.381 88.9674 14.6534 87.7983 15.1814C86.6291 15.7094 85.5861 16.4809 84.7389 17.4442C83.8913 16.4812 82.8482 15.71 81.6792 15.1818C80.5101 14.6536 79.2419 14.3807 77.9591 14.3811C76.0823 14.3811 74.3408 14.9506 72.8982 15.934C72.018 14.9517 70.0487 14.3811 68.9181 14.3811V36.977L70.0487 36.9212C71.9397 36.7966 73.3063 35.4668 73.3799 33.59L73.4404 32.4583V24.5526L73.4961 23.4221C73.5436 22.5691 73.6622 21.8194 74.0478 21.1515C74.4458 20.4668 75.0165 19.8986 75.7028 19.5035C76.3891 19.1084 77.1671 18.9002 77.9591 18.8998C78.7516 18.9 79.5302 19.1085 80.2167 19.5046C80.9032 19.9006 81.4735 20.4702 81.8704 21.1562V21.1562ZM4.5187 36.9224L5.64926 36.977H22.5958L22.5401 35.85C22.3871 33.9922 21.0714 32.635 19.2077 32.514L18.0772 32.4583H7.91039L21.4653 18.8986L21.4095 17.7728C21.3217 15.8961 19.9504 14.5401 18.0772 14.4369L16.9466 14.3859L0 14.3811L0.0557571 15.5117C0.204047 17.3517 1.53866 18.7373 3.38695 18.8441L4.5187 18.8998H14.6855L1.13056 32.4595L1.18632 33.59C1.29783 35.4525 2.64194 36.8014 4.5187 36.9212V36.9224ZM64.4825 17.6886C65.5318 18.7377 66.3641 19.9832 66.932 21.354C67.4999 22.7248 67.7922 24.1941 67.7922 25.6779C67.7922 27.1616 67.4999 28.6309 66.932 30.0017C66.3641 31.3725 65.5318 32.618 64.4825 33.6671C62.3625 35.7854 59.4883 36.9752 56.4914 36.9752C53.4945 36.9752 50.6203 35.7854 48.5003 33.6671C44.0884 29.2552 44.0884 22.1005 48.5003 17.6886C49.5487 16.6398 50.7933 15.8079 52.1632 15.2402C53.5331 14.6725 55.0014 14.3802 56.4843 14.3799C57.9696 14.3789 59.4405 14.6707 60.8129 15.2386C62.1853 15.8066 63.4322 16.6395 64.4825 17.6898V17.6886ZM61.2853 20.8881C62.5561 22.1598 63.27 23.8841 63.27 25.682C63.27 27.4799 62.5561 29.2042 61.2853 30.4759C60.0136 31.7467 58.2893 32.4606 56.4914 32.4606C54.6935 32.4606 52.9692 31.7467 51.6975 30.4759C50.4267 29.2042 49.7128 27.4799 49.7128 25.682C49.7128 23.8841 50.4267 22.1598 51.6975 20.8881C52.9692 19.6173 54.6935 18.9034 56.4914 18.9034C58.2893 18.9034 60.0136 19.6173 61.2853 20.8881V20.8881ZM32.7721 14.3799C34.2551 14.3803 35.7234 14.6728 37.0933 15.2407C38.4632 15.8086 39.7078 16.6408 40.756 17.6898C45.1692 22.1005 45.1692 29.2564 40.756 33.6671C38.6361 35.7854 35.7618 36.9752 32.765 36.9752C29.7681 36.9752 26.8939 35.7854 24.7739 33.6671C20.362 29.2552 20.362 22.1005 24.7739 17.6886C25.8223 16.6398 27.0669 15.8079 28.4368 15.2402C29.8067 14.6725 31.275 14.3802 32.7579 14.3799H32.7721ZM37.5589 20.8857C38.8301 22.1575 39.5441 23.8821 39.5441 25.6802C39.5441 27.4784 38.8301 29.2029 37.5589 30.4747C36.2871 31.7455 34.5628 32.4594 32.765 32.4594C30.9671 32.4594 29.2428 31.7455 27.9711 30.4747C26.7003 29.203 25.9864 27.4787 25.9864 25.6808C25.9864 23.883 26.7003 22.1587 27.9711 20.8869C29.2428 19.6161 30.9671 18.9023 32.765 18.9023C34.5628 18.9023 36.2871 19.6161 37.5589 20.8869V20.8857Z" fill="var(--fill-0, #2D8CFF)"/>
</g>
<defs>
<clipPath id="clip0_0_152">
<rect width="100.66" height="49.3026" fill="white"/>
</clipPath>
</defs>
</svg>
