<svg preserveAspectRatio="none" width="100%" height="100%" overflow="visible" style="display: block;" viewBox="0 0 143.799 49.3026" fill="none" xmlns="http://www.w3.org/2000/svg">
<g id="Company logo" clip-path="url(#clip0_0_128)">
<path id="Vector" d="M21.6445 3.16266C9.73183 3.16266 0.0742268 12.82 0.0742268 24.7327C0.0742268 36.6459 9.73183 46.3025 21.6445 46.3025C33.5585 46.3025 43.2151 36.6459 43.2151 24.7327C43.2151 12.8208 33.5585 3.16369 21.6443 3.16369L21.6445 3.16266V3.16266ZM31.5365 34.2728C31.1501 34.9065 30.3208 35.1074 29.6871 34.7184C24.6226 31.6249 18.2471 30.9243 10.7387 32.6398C10.0152 32.8046 9.29395 32.3513 9.1291 31.6275C8.96348 30.9037 9.41501 30.1825 10.1403 30.0177C18.3571 28.1404 25.4051 28.9487 31.0909 32.4234C31.7245 32.8124 31.9255 33.6392 31.5365 34.2728V34.2728ZM34.1767 28.3996C33.6899 29.1908 32.6544 29.4407 31.8636 28.9539C26.0656 25.39 17.2273 24.3579 10.3693 26.4397C9.47992 26.7083 8.54053 26.2071 8.27059 25.3192C8.00271 24.4298 8.50422 23.4922 9.39208 23.2217C17.2258 20.8448 26.9645 21.9962 33.6229 26.0878C34.4137 26.5746 34.6635 27.6101 34.1767 28.3998V28.3996ZM34.4033 22.2836C27.4513 18.1544 15.9814 17.7748 9.34392 19.7893C8.27806 20.1125 7.1509 19.5108 6.8279 18.445C6.5049 17.3786 7.10609 16.2522 8.17271 15.9282C15.7921 13.6151 28.4585 14.062 36.4624 18.8136C37.4232 19.3826 37.7374 20.6207 37.1682 21.5781C36.6015 22.5368 35.36 22.8529 34.4044 22.2836H34.4033ZM58.7599 23.0749C55.0353 22.1868 54.3733 21.5635 54.3733 20.2537C54.3733 19.0163 55.5376 18.1835 57.2711 18.1835C58.9505 18.1835 60.6144 18.8159 62.3608 20.1177C62.4123 20.1571 62.4793 20.1728 62.5437 20.1625C62.6106 20.1527 62.6673 20.1169 62.7059 20.0631L64.5244 17.4997C64.5991 17.3941 64.5785 17.2485 64.4781 17.1679C62.3994 15.5006 60.0606 14.69 57.3251 14.69C53.3044 14.69 50.4942 17.1033 50.4942 20.5561C50.4942 24.2587 52.918 25.5698 57.1062 26.5818C60.6685 27.4027 61.2712 28.0905 61.2712 29.3196C61.2712 30.6822 60.0555 31.5296 58.0979 31.5296C55.9239 31.5296 54.1492 30.7955 52.1659 29.0801C52.1169 29.0363 52.05 29.0183 51.9881 29.0208C51.9212 29.026 51.8619 29.0569 51.8207 29.1058L49.7807 31.5322C49.6957 31.6352 49.706 31.7846 49.8039 31.8722C52.1118 33.9328 54.9503 35.0198 58.0155 35.0198C62.3479 35.0198 65.1478 32.6527 65.1478 28.9874C65.1555 25.8946 63.3035 24.1817 58.7676 23.0783L58.7599 23.0749V23.0749ZM74.9512 19.4019C73.0734 19.4019 71.5331 20.1416 70.2607 21.6575V19.9513C70.2607 19.8166 70.1525 19.7068 70.0186 19.7068H66.6829C66.549 19.7068 66.4408 19.8166 66.4408 19.9513V38.9092C66.4408 39.0432 66.549 39.1539 66.6829 39.1539H70.0186C70.1525 39.1539 70.2607 39.0432 70.2607 38.9092V32.9257C71.5331 34.3501 73.0734 35.0481 74.9512 35.0481C78.4413 35.0481 81.9753 32.3616 81.9753 27.2258C81.9804 22.0889 78.4465 19.4016 74.9537 19.4016L74.9512 19.4019ZM78.0962 27.2258C78.0962 29.8399 76.4863 31.6662 74.1784 31.6662C71.8989 31.6662 70.1783 29.7575 70.1783 27.2258C70.1783 24.6938 71.8989 22.7857 74.1784 22.7857C76.4477 22.7854 78.0962 24.6523 78.0962 27.2255V27.2258ZM91.0291 19.4019C86.5344 19.4019 83.0133 22.8627 83.0133 27.2817C83.0133 31.6533 86.5112 35.0765 90.975 35.0765C95.4852 35.0765 99.0166 31.6275 99.0166 27.2258C99.0166 22.839 95.5084 19.4024 91.0291 19.4024V19.4019V19.4019ZM91.0291 31.6919C88.6388 31.6919 86.8358 29.7704 86.8358 27.2245C86.8358 24.667 88.577 22.8112 90.975 22.8112C93.3808 22.8112 95.1942 24.7319 95.1942 27.2804C95.1942 29.8374 93.4426 31.6919 91.0291 31.6919V31.6919ZM108.614 19.7068H104.943V15.955C104.943 15.8205 104.835 15.7108 104.701 15.7108H101.366C101.232 15.7108 101.121 15.8205 101.121 15.955V19.7068H99.5189C99.3849 19.7068 99.2768 19.8166 99.2768 19.9513V22.8173C99.2768 22.9518 99.3849 23.0618 99.5189 23.0618H101.121V30.4787C101.121 33.4743 102.612 34.9941 105.556 34.9941C106.752 34.9941 107.743 34.7468 108.678 34.2162C108.756 34.175 108.802 34.0925 108.802 34.005V31.2746C108.802 31.1922 108.758 31.1124 108.686 31.0686C108.614 31.0222 108.524 31.0196 108.449 31.0583C107.808 31.3802 107.187 31.5296 106.491 31.5296C105.423 31.5296 104.943 31.0428 104.943 29.9558V23.0631H108.614C108.748 23.0631 108.856 22.9533 108.856 22.8186V19.9528C108.861 19.8181 108.753 19.7084 108.617 19.7084L108.614 19.7068V19.7068ZM121.4 19.7215V19.2607C121.4 17.9051 121.92 17.3006 123.085 17.3006C123.78 17.3006 124.339 17.4386 124.965 17.6473C125.042 17.6715 125.122 17.6594 125.184 17.6133C125.248 17.5672 125.284 17.4932 125.284 17.4149V14.6048C125.284 14.4973 125.217 14.4023 125.112 14.3706C124.452 14.1741 123.607 13.9724 122.34 13.9724C119.262 13.9724 117.632 15.7069 117.632 18.9867V19.6924H116.03C115.896 19.6924 115.785 19.8021 115.785 19.9366V22.8173C115.785 22.9518 115.896 23.0618 116.03 23.0618H117.632V34.4995C117.632 34.636 117.742 34.7442 117.876 34.7442H121.209C121.346 34.7442 121.454 34.636 121.454 34.4995V23.0626H124.568L129.339 34.4995C128.798 35.6998 128.264 35.9394 127.538 35.9394C126.951 35.9394 126.33 35.7642 125.699 35.4165C125.64 35.3856 125.568 35.3804 125.506 35.3984C125.441 35.4216 125.387 35.468 125.362 35.5298L124.231 38.0103C124.177 38.1288 124.223 38.2653 124.336 38.3271C125.516 38.9659 126.58 39.2389 127.896 39.2389C130.359 39.2389 131.721 38.0901 132.919 35.0044L138.704 20.0553C138.735 19.9801 138.725 19.8951 138.678 19.8284C138.635 19.7622 138.56 19.7223 138.48 19.7223H135.008C134.902 19.7223 134.81 19.7885 134.776 19.8861L131.219 30.0434L127.324 19.8794C127.288 19.7849 127.198 19.7223 127.098 19.7223H121.4V19.7215V19.7215ZM113.987 19.7068H110.651C110.517 19.7068 110.407 19.8166 110.407 19.9513V34.4995C110.407 34.636 110.517 34.7442 110.651 34.7442H113.987C114.121 34.7442 114.232 34.636 114.232 34.4995V19.9523C114.232 19.8176 114.124 19.7079 113.987 19.7079V19.7068ZM112.338 13.0822C111.017 13.0822 109.946 14.1517 109.946 15.4728C109.946 16.7947 111.017 17.8654 112.338 17.8654C113.66 17.8654 114.729 16.7947 114.729 15.4728C114.729 14.1519 113.657 13.0822 112.338 13.0822ZM141.553 24.3847C140.234 24.3847 139.206 23.3248 139.206 22.0377C139.206 20.7505 140.247 19.6785 141.566 19.6785C142.885 19.6785 143.912 20.7382 143.912 22.0243C143.912 23.3114 142.872 24.3847 141.553 24.3847ZM141.566 19.9119C140.363 19.9119 139.454 20.8675 139.454 22.0377C139.454 23.2073 140.358 24.1501 141.553 24.1501C142.756 24.1501 143.665 23.1952 143.665 22.0243C143.665 20.8546 142.761 19.9119 141.566 19.9119V19.9119ZM142.086 22.2656L142.751 23.195H142.189L141.592 22.3424H141.079V23.195H140.61V20.7315H141.707C142.282 20.7315 142.658 21.0244 142.658 21.5174C142.66 21.9212 142.426 22.168 142.089 22.2656H142.086ZM141.689 21.1542H141.079V21.9333H141.689C141.993 21.9333 142.176 21.7842 142.176 21.5434C142.176 21.2899 141.993 21.1542 141.689 21.1542V21.1542Z" fill="var(--fill-0, #1ED760)"/>
</g>
<defs>
<clipPath id="clip0_0_128">
<rect width="143.799" height="49.3026" fill="white"/>
</clipPath>
</defs>
</svg>
