<svg preserveAspectRatio="none" width="100%" height="100%" overflow="visible" style="display: block;" viewBox="0 0 172.559 49.3026" fill="none" xmlns="http://www.w3.org/2000/svg">
<g id="Company logo">
<path id="Vector" fill-rule="evenodd" clip-rule="evenodd" d="M45.8578 10.3801L31.2251 38.9853H17.4809L23.6047 27.1301H23.33C18.2779 33.6883 10.7402 38.0056 1.26278e-06 38.9853V27.2942C1.26278e-06 27.2942 6.87073 26.8884 10.9098 22.6418H1.26278e-06V10.3803H12.2615V20.4652L12.5367 20.4641L17.5472 10.3803H26.8202V20.4013L27.0955 20.4008L32.2938 10.3801H45.8578Z" fill="var(--fill-0, #146EF5)"/>
<g id="Vector_2">
<path d="M125.65 35.8279H129.599V13.1612H125.65V35.8279Z" fill="var(--fill-0, #080808)"/>
<path fill-rule="evenodd" clip-rule="evenodd" d="M103.881 35.5964C104.739 35.9533 105.612 36.1316 106.499 36.1316C107.965 36.1316 109.276 35.7749 110.433 35.0613C111.591 34.3477 112.487 33.364 113.124 32.1104C113.76 30.8471 114.079 29.4151 114.079 27.8143C114.079 26.2134 113.751 24.7814 113.095 23.5181C112.439 22.2549 111.528 21.276 110.361 20.5817C109.194 19.8778 107.868 19.5306 106.383 19.5402C105.438 19.5402 104.532 19.7235 103.664 20.0899C102.796 20.4564 102.073 20.9771 101.494 21.6521C101.449 21.7035 101.406 21.7554 101.364 21.8079V13.1756H97.4003V35.8279H101.335L101.327 33.7118C101.429 33.8365 101.537 33.9584 101.653 34.0776C102.28 34.7238 103.022 35.23 103.881 35.5964ZM107.931 31.9368C107.285 32.3321 106.547 32.5299 105.718 32.5299C104.898 32.5299 104.146 32.3273 103.461 31.9223C102.777 31.5076 102.232 30.9435 101.827 30.2299C101.431 29.5163 101.234 28.7063 101.234 27.7998C101.224 26.8933 101.417 26.0833 101.812 25.3697C102.217 24.6464 102.762 24.0871 103.447 23.6917C104.131 23.2867 104.888 23.089 105.718 23.0986C106.547 23.089 107.285 23.2819 107.931 23.6772C108.587 24.063 109.088 24.6175 109.435 25.3407C109.792 26.0543 109.97 26.8741 109.97 27.7998C109.97 28.7255 109.792 29.5453 109.435 30.2589C109.088 30.9724 108.587 31.5318 107.931 31.9368Z" fill="var(--fill-0, #080808)"/>
<path d="M51.5788 14.5353H56.0919L60.1291 29.2791L64.4239 14.5353H68.1847L72.8426 28.9832L76.7191 14.5353H80.8561L74.7518 35.8279H70.8607L66.1245 21.7135L61.7767 35.8279H57.8421L51.5788 14.5353Z" fill="var(--fill-0, #080808)"/>
<path fill-rule="evenodd" clip-rule="evenodd" d="M87.5207 36.204C85.9488 36.2136 84.5313 35.8664 83.2679 35.1625C82.0144 34.4489 81.0259 33.4604 80.3026 32.1972C79.5891 30.9338 79.2322 29.4922 79.2322 27.8721C79.2322 26.3003 79.5987 24.8778 80.3316 23.6049C81.0644 22.332 82.0578 21.3387 83.3113 20.6251C84.565 19.9115 85.9633 19.5547 87.5063 19.5547C89.242 19.5547 90.7609 19.9404 92.0627 20.7119C93.3742 21.4834 94.353 22.5779 94.9991 23.9955C95.6549 25.4034 95.8911 27.0187 95.7079 28.8412H83.3175C83.3521 29.5673 83.5333 30.228 83.8611 30.8229C84.2275 31.4787 84.7387 31.9898 85.3943 32.3563C86.05 32.7227 86.783 32.9059 87.593 32.9059C88.2102 32.8963 88.784 32.7902 89.3143 32.5878C89.8447 32.3756 90.2931 32.0911 90.6597 31.7343C91.0356 31.3775 91.3008 30.9724 91.4551 30.5193H95.5923C95.3415 31.6282 94.84 32.6167 94.0878 33.4846C93.3356 34.3427 92.3905 35.013 91.2527 35.4952C90.1147 35.9773 88.8707 36.2136 87.5207 36.204ZM83.8755 24.8634C83.6444 25.2664 83.4843 25.7003 83.3952 26.1653H91.6085C91.5489 25.5779 91.3676 25.0427 91.0646 24.5596C90.7175 23.9907 90.245 23.5519 89.6471 23.2433C89.0491 22.9251 88.3742 22.766 87.622 22.766C86.8216 22.766 86.0936 22.9492 85.4378 23.3156C84.782 23.6821 84.2612 24.198 83.8755 24.8634Z" fill="var(--fill-0, #080808)"/>
<path d="M116.986 19.8874C116.986 18.5952 117.28 17.4476 117.868 16.4447C118.457 15.4322 119.281 14.6462 120.342 14.0869C121.412 13.518 122.661 13.2238 124.088 13.2046V16.7195C123.423 16.7292 122.854 16.869 122.381 17.139C121.919 17.3994 121.562 17.7803 121.311 18.2818C121.08 18.7434 120.956 19.2786 120.937 19.8874H124.002V23.2288H120.935V35.8279H116.986V23.2288H114.44V19.8874H116.986Z" fill="var(--fill-0, #080808)"/>
<path fill-rule="evenodd" clip-rule="evenodd" d="M139.638 36.1751C138.028 36.1751 136.586 35.823 135.313 35.1191C134.05 34.4055 133.057 33.4218 132.333 32.1683C131.62 30.9049 131.263 29.473 131.263 27.8721C131.263 26.2617 131.62 24.8248 132.333 23.5615C133.057 22.2886 134.05 21.3002 135.313 20.5962C136.586 19.8922 138.028 19.5402 139.638 19.5402C141.258 19.5402 142.705 19.8922 143.978 20.5962C145.26 21.3002 146.258 22.2838 146.972 23.5471C147.685 24.8103 148.047 26.252 148.057 27.8721C148.047 29.473 147.685 30.9049 146.972 32.1683C146.268 33.4218 145.275 34.4055 143.992 35.1191C142.71 35.823 141.258 36.1751 139.638 36.1751ZM139.638 32.5444C140.487 32.5444 141.239 32.3515 141.895 31.9657C142.55 31.5704 143.057 31.0206 143.413 30.3167C143.77 29.6031 143.949 28.7883 143.949 27.8721C143.949 26.9464 143.77 26.1267 143.413 25.413C143.057 24.6994 142.55 24.1498 141.895 23.764C141.239 23.3687 140.487 23.171 139.638 23.171C138.799 23.171 138.052 23.3687 137.396 23.764C136.75 24.1498 136.248 24.6994 135.892 25.413C135.535 26.1267 135.361 26.9464 135.371 27.8721C135.371 28.7883 135.549 29.6031 135.906 30.3167C136.273 31.0206 136.774 31.5704 137.411 31.9657C138.057 32.3515 138.799 32.5444 139.638 32.5444Z" fill="var(--fill-0, #080808)"/>
<path d="M152.324 19.8874H147.927L152.686 35.8279H156.533L159.663 25.6467L163.043 35.8279H166.833L171.606 19.8874H167.629L164.921 29.8093L161.929 19.8874H158.081L155.103 30.028L152.324 19.8874Z" fill="var(--fill-0, #080808)"/>
</g>
</g>
</svg>
