<svg preserveAspectRatio="none" width="100%" height="100%" overflow="visible" style="display: block;" viewBox="0 0 138.664 49.3026" fill="none" xmlns="http://www.w3.org/2000/svg">
<g id="Company logo">
<path id="Vector" d="M27.8519 17.1536C22.8387 17.1536 18.9216 20.9592 18.9216 26.0538C18.9216 31.1484 22.7397 34.9214 27.8519 34.9214C32.964 34.9214 36.8485 31.0832 36.8485 26.0212C36.8485 20.9917 33.0304 17.1536 27.8519 17.1536ZM27.8857 31.2499C25.0309 31.2499 22.9389 29.0326 22.9389 26.055C22.9389 23.0436 24.997 20.8276 27.8519 20.8276C30.7405 20.8276 32.8313 23.0774 32.8313 26.055C32.8313 29.0326 30.7405 31.2499 27.8857 31.2499ZM37.9434 21.0256H40.4335V34.592H44.417V17.4843H37.9434V21.0256ZM8.89646 20.8264C10.9884 20.8264 12.6482 22.1166 13.2783 24.0357H17.4948C16.7307 19.9332 13.3447 17.1536 8.93028 17.1536C3.91709 17.1536 0 20.9592 0 26.055C0 31.1509 3.81814 34.9227 8.93028 34.9227C13.2457 34.9227 16.6981 32.143 17.4622 28.0067H13.2783C12.6808 29.9258 11.021 31.2499 8.92905 31.2499C6.04038 31.2499 4.01604 29.0326 4.01604 26.055C4.01732 23.0436 6.00906 20.8264 8.89646 20.8264ZM113.632 24.4002L110.711 23.9706C109.317 23.7727 108.321 23.3092 108.321 22.2169C108.321 21.0256 109.616 20.4305 111.375 20.4305C113.3 20.4305 114.529 21.2573 114.795 22.6139H118.646C118.213 19.1729 115.558 17.1548 111.475 17.1548C107.259 17.1548 104.47 19.3057 104.47 22.3496C104.47 25.2608 106.296 26.9495 109.981 27.4781L112.902 27.9077C114.33 28.1056 115.127 28.6693 115.127 29.7279C115.127 31.0845 113.733 31.647 111.807 31.647C109.449 31.647 108.122 30.6874 107.923 29.2318H104.005C104.371 32.5739 106.993 34.9227 111.773 34.9227C116.123 34.9227 119.01 32.9372 119.01 29.5287C119.01 26.4847 116.919 24.8963 113.632 24.4002ZM42.4253 10.4367C40.9647 10.4367 39.8689 11.4952 39.8689 12.9508C39.8689 14.4064 40.9635 15.4649 42.4253 15.4649C43.8859 15.4649 44.9821 14.4064 44.9821 12.9508C44.9821 11.4952 43.8859 10.4367 42.4253 10.4367ZM100.885 23.3417C100.885 19.6363 98.6279 17.1548 93.8475 17.1548C89.3329 17.1548 86.81 19.4384 86.3115 22.9459H90.2623C90.4614 21.5893 91.5238 20.4644 93.7813 20.4644C95.8069 20.4644 96.8026 21.3575 96.8026 22.4499C96.8026 23.8729 94.9761 24.2362 92.719 24.4679C89.6649 24.7986 85.8805 25.8571 85.8805 29.8281C85.8805 32.9059 88.1716 34.8901 91.8234 34.8901C94.678 34.8901 96.4706 33.6988 97.3677 31.8123C97.5005 33.4997 98.762 34.592 100.522 34.592H102.846V31.0519H100.886V23.3417H100.885ZM96.9678 27.6434C96.9678 29.927 94.9761 31.6144 92.5522 31.6144C91.0581 31.6144 89.7966 30.9855 89.7966 29.6627C89.7966 27.9754 91.8219 27.5119 93.6811 27.314C95.4737 27.1486 96.4694 26.7515 96.9678 25.9899V27.6434ZM75.8216 17.1536C73.5969 17.1536 71.738 18.0805 70.4103 19.6351V10.2714H66.4268V34.592H70.3437V32.3422C71.6714 33.9631 73.5645 34.9227 75.8216 34.9227C80.6017 34.9227 84.2208 31.1509 84.2208 26.055C84.2208 20.9592 80.5354 17.1536 75.8216 17.1536ZM75.2242 31.2499C72.3693 31.2499 70.2774 29.0326 70.2774 26.055C70.2774 23.0774 72.402 20.8276 75.2566 20.8276C78.1454 20.8276 80.1695 23.0449 80.1695 26.055C80.1695 29.0326 78.0788 31.2499 75.2242 31.2499ZM56.8987 17.1536C54.3095 17.1536 52.6159 18.2121 51.6202 19.7015V17.4843H47.6691V34.5907H51.6526V25.2934C51.6526 22.6791 53.3123 20.8264 55.769 20.8264C58.06 20.8264 59.4867 22.4474 59.4867 24.7974V34.592H63.4702V24.5005C63.4717 20.1975 61.2481 17.1536 56.8987 17.1536ZM137.999 25.4926C137.999 20.5959 134.414 17.1548 129.6 17.1548C124.488 17.1548 120.736 20.993 120.736 26.055C120.736 31.3826 124.753 34.9227 129.667 34.9227C133.817 34.9227 137.07 32.4737 137.899 29.0001H133.749C133.151 30.522 131.691 31.3826 129.732 31.3826C127.175 31.3826 125.249 29.7943 124.818 27.0146H137.998V25.4926H137.999ZM125.051 24.1685C125.683 21.7859 127.475 20.6285 129.534 20.6285C131.791 20.6285 133.517 21.9187 133.916 24.1685H125.051Z" fill="var(--fill-0, #0052FF)"/>
</g>
</svg>
