<svg preserveAspectRatio="none" width="100%" height="100%" overflow="visible" style="display: block;" viewBox="0 0 167.423 49.3026" fill="none" xmlns="http://www.w3.org/2000/svg">
<g id="Company logo">
<g id="Vector">
<path d="M46.2729 14.3934H54.1019C59.093 14.3934 63.2162 17.2813 63.2162 23.875V25.2605C63.2162 31.9043 59.3601 34.8923 54.2521 34.8923H46.2729V14.3934ZM50.6464 18.1159V31.1531H54.0017C56.8395 31.1531 58.7425 29.3002 58.7425 25.177V24.092C58.7425 19.9688 56.7393 18.1159 53.8515 18.1159H50.6464ZM65.5365 18.3162H69.042L69.6096 22.1723C70.2773 19.5515 71.98 18.1493 75.0682 18.1493H76.1532V22.5729H74.3504C70.7948 22.5729 69.9268 23.8082 69.9268 27.3137V34.9424H65.6033V18.3162H65.5365ZM77.0213 26.9632V26.4958C77.0213 20.937 80.5769 17.8989 85.4178 17.8989C90.3589 17.8989 93.8144 20.937 93.8144 26.4958V26.9632C93.8144 32.4218 90.4591 35.3597 85.4178 35.3597C80.0594 35.3096 77.0213 32.4385 77.0213 26.9632ZM89.3908 26.9131V26.4958C89.3908 23.4076 87.8383 21.5547 85.3678 21.5547C82.9473 21.5547 81.3448 23.2573 81.3448 26.4958V26.9131C81.3448 29.9011 82.8972 31.6038 85.3678 31.6038C87.8383 31.5537 89.3908 29.9011 89.3908 26.9131ZM96.0846 18.3162H99.6903L100.108 21.4545C100.976 19.3512 102.829 17.8989 105.566 17.8989C109.79 17.8989 112.577 20.937 112.577 26.5625V27.0299C112.577 32.4885 109.489 35.3764 105.566 35.3764C102.945 35.3764 101.143 34.1912 100.258 32.2882V40.6848H96.0346L96.0846 18.3162ZM108.187 26.9131V26.5458C108.187 23.2406 106.484 21.6047 104.214 21.6047C101.794 21.6047 100.191 23.4577 100.191 26.5458V26.863C100.191 29.801 101.744 31.6539 104.164 31.6539C106.651 31.6038 108.187 30.018 108.187 26.9131ZM118.971 31.8709L118.603 34.909H114.898V12.7575H119.121V21.2542C120.056 19.0841 121.909 17.8989 124.529 17.8989C128.502 17.949 131.44 20.6866 131.44 26.1953V26.7128C131.44 32.2215 128.653 35.3764 124.429 35.3764C121.642 35.3096 119.839 34.0243 118.971 31.8709ZM127 26.7128V26.2955C127 23.2573 125.347 21.5547 123.027 21.5547C120.657 21.5547 119.004 23.4577 119.004 26.3455V26.7128C119.004 29.801 120.607 31.6038 122.977 31.6038C125.514 31.6038 127 30.018 127 26.7128ZM133.293 26.9632V26.4958C133.293 20.937 136.849 17.8989 141.69 17.8989C146.631 17.8989 150.086 20.937 150.086 26.4958V26.9632C150.086 32.4218 146.681 35.3597 141.69 35.3597C136.331 35.3096 133.293 32.4385 133.293 26.9632ZM145.696 26.9131V26.4958C145.696 23.4076 144.144 21.5547 141.673 21.5547C139.253 21.5547 137.65 23.2573 137.65 26.4958V26.9131C137.65 29.9011 139.203 31.6038 141.673 31.6038C144.16 31.5537 145.696 29.9011 145.696 26.9131ZM155.745 26.2955L149.919 18.3162H154.911L158.266 23.3074L161.671 18.3162H166.612L160.703 26.2454L166.93 34.909H162.038L158.232 29.4003L154.527 34.909H149.419L155.745 26.2955Z" fill="var(--fill-0, black)"/>
</g>
<path id="Vector_2" d="M19.3638 14.3935L9.68191 20.5699L19.3638 26.7463L9.68191 32.9227L0 26.7129L9.68191 20.5365L0 14.3935L9.68191 8.2171L19.3638 14.3935ZM9.63183 34.9091L19.3137 28.7327L28.9957 34.9091L19.3137 41.0855L9.63183 34.9091ZM19.3638 26.7129L29.0457 20.5365L19.3638 14.3935L28.9957 8.2171L38.6776 14.3935L28.9957 20.5699L38.6776 26.7463L28.9957 32.9227L19.3638 26.7129Z" fill="var(--fill-0, #0061FF)"/>
</g>
</svg>
