<svg preserveAspectRatio="none" width="100%" height="100%" overflow="visible" style="display: block;" viewBox="0 0 124.284 49.3026" fill="none" xmlns="http://www.w3.org/2000/svg">
<g id="Company logo">
<path id="Vector" d="M38.9543 33.3063L40.4622 29.7818C42.1133 31.0045 44.2669 31.6517 46.421 31.6517C48.0005 31.6517 49.0055 31.0405 49.0055 30.1056C48.9694 27.516 39.4928 29.53 39.4207 23.0194C39.3847 19.7105 42.3285 17.1569 46.493 17.1569C48.9694 17.1569 51.4468 17.7685 53.2055 19.1715L51.7964 22.7712C50.1783 21.7307 48.1797 21.0053 46.2773 21.0053C44.9851 21.0053 44.1232 21.6164 44.1232 22.4083C44.1593 24.9619 53.7085 23.5589 53.8161 29.7818C53.8161 33.1627 50.9438 35.5366 46.8514 35.5366C43.8365 35.5366 41.0723 34.8174 38.9538 33.3063H38.9543ZM98.9987 28.5055C98.6181 29.1818 98.0644 29.7447 97.3945 30.1364C96.7245 30.5282 95.9624 30.7347 95.1864 30.7347C92.7677 30.7347 90.8072 28.7701 90.8072 26.3468C90.8072 23.9234 92.7677 21.9588 95.1864 21.9588C95.9624 21.9589 96.7245 22.1654 97.3945 22.5571C98.0644 22.9488 98.6181 23.5117 98.9987 24.1881L103.191 21.861C101.621 19.0546 98.6255 17.1569 95.1864 17.1569C90.1209 17.1569 86.0145 21.271 86.0145 26.3468C86.0145 31.422 90.1209 35.5366 95.1864 35.5366C98.6255 35.5366 101.621 33.6389 103.191 30.8325L98.9987 28.5055ZM56.5365 35.1767H61.7775V9.50695H56.537L56.5365 35.1767ZM105.838 9.50695V35.1767H111.079V27.4861L117.289 35.1767H123.988L116.091 26.0404L123.414 17.5152H117.002L111.079 24.603V9.50695H105.838ZM77.9244 17.5163V19.6029C77.0631 18.1639 74.945 17.1569 72.7194 17.1569C68.1245 17.1569 64.499 21.2216 64.499 26.3287C64.499 31.4359 68.1245 35.5366 72.7194 35.5366C74.945 35.5366 77.0631 34.5296 77.9244 33.0906V35.1767H83.1654V17.5163H77.9244ZM77.9244 28.541C77.1707 29.7998 75.5911 30.7342 73.8325 30.7342C71.4132 30.7342 69.4527 28.7701 69.4527 26.3468C69.4527 23.9234 71.4132 21.9588 73.8325 21.9588C75.5911 21.9588 77.1707 22.9298 77.9244 24.2241V28.541Z" fill="var(--fill-0, black)"/>
<path id="Vector_2" d="M11.2762 8.93981C9.57777 8.93981 8.2011 10.3196 8.2011 12.0211C8.20069 12.4254 8.27991 12.8257 8.43423 13.1993C8.58855 13.573 8.81495 13.9125 9.1005 14.1986C9.38605 14.4848 9.72517 14.7119 10.0985 14.8669C10.4718 15.022 10.872 15.102 11.2762 15.1024H14.3519V12.0211C14.3525 11.2047 14.0289 10.4214 13.4521 9.84355C12.8753 9.26571 12.0927 8.94063 11.2762 8.93981V8.93981ZM11.2762 17.1566H3.07538C1.37693 17.1566 0.000250766 18.5364 0.000250766 20.2384C0.000250766 21.94 1.37693 23.3197 3.07538 23.3197H11.2767C12.9747 23.3197 14.3519 21.94 14.3519 20.2384C14.3519 18.5364 12.9747 17.1566 11.2762 17.1566" fill="var(--fill-0, #36C5F0)"/>
<path id="Vector_3" d="M30.7537 20.2384C30.7537 18.5364 29.3765 17.1566 27.678 17.1566C25.9796 17.1566 24.6029 18.5364 24.6029 20.2384V23.3197H27.678C28.4945 23.3189 29.2771 22.9938 29.8539 22.416C30.4307 21.8382 30.7543 21.0549 30.7537 20.2384V20.2384ZM22.5528 20.2384V12.0211C22.5535 11.2047 22.2299 10.4214 21.6531 9.84355C21.0763 9.26571 20.2936 8.94063 19.4772 8.93981C17.7787 8.93981 16.402 10.3196 16.402 12.0211V20.2379C16.402 21.9405 17.7787 23.3203 19.4772 23.3203C20.2936 23.3194 21.0763 22.9944 21.6531 22.4165C22.2299 21.8387 22.5535 21.0554 22.5528 20.239" fill="var(--fill-0, #2EB67D)"/>
<path id="Vector_4" d="M19.4772 39.7539C20.2937 39.7531 21.0764 39.428 21.6531 38.8502C22.2299 38.2724 22.5536 37.4891 22.5529 36.6726C22.5536 35.8562 22.2299 35.0729 21.6531 34.4951C21.0764 33.9172 20.2937 33.5922 19.4772 33.5913H16.4021V36.6726C16.4021 38.3742 17.7788 39.7539 19.4772 39.7539ZM19.4772 31.5371H27.6786C29.3765 31.5371 30.7537 30.1574 30.7537 28.4553C30.7544 27.6389 30.4308 26.8556 29.854 26.2778C29.2772 25.6999 28.4945 25.3748 27.6781 25.374H19.4772C17.7788 25.374 16.4021 26.7538 16.4021 28.4553C16.4017 28.8596 16.4809 29.2599 16.6352 29.6335C16.7896 30.0072 17.016 30.3467 17.3015 30.6329C17.5871 30.919 17.9262 31.1461 18.2995 31.3011C18.6728 31.4562 19.073 31.5362 19.4772 31.5366" fill="var(--fill-0, #ECB22E)"/>
<path id="Vector_5" d="M1.55163e-06 28.4553C-0.000404309 28.8596 0.0788142 29.2599 0.233134 29.6335C0.387454 30.0072 0.613853 30.3467 0.899405 30.6329C1.18496 30.919 1.52407 31.1461 1.89738 31.3011C2.27069 31.4562 2.67089 31.5362 3.07513 31.5366C3.89157 31.5358 4.67425 31.2107 5.25103 30.6329C5.82781 30.055 6.15145 29.2718 6.15077 28.4553V25.374H3.07513C1.37668 25.374 1.55163e-06 26.7538 1.55163e-06 28.4553V28.4553ZM8.20085 28.4553V36.6721C8.20085 38.3742 9.57753 39.7539 11.276 39.7539C12.0924 39.7531 12.8751 39.428 13.4519 38.8502C14.0287 38.2724 14.3523 37.4891 14.3516 36.6726V28.4553C14.352 28.051 14.2728 27.6506 14.1184 27.277C13.9641 26.9033 13.7376 26.5637 13.452 26.2776C13.1664 25.9915 12.8272 25.7644 12.4539 25.6094C12.0805 25.4543 11.6803 25.3744 11.276 25.374C9.57753 25.374 8.20085 26.7538 8.20085 28.4553Z" fill="var(--fill-0, #E01E5A)"/>
</g>
</svg>
